<svg width="211" height="57" viewBox="0 0 211 57" fill="none" xmlns="http://www.w3.org/2000/svg">
<path d="M19.3138 39.9153H37.597L41.0536 48.2895H52.9695L34.1405 5.104H21.6788L4.6084 48.2895H16.4031L19.3138 39.9153ZM22.2246 31.8161L27.9248 16.5651L34.1405 31.8161H22.2246Z" fill="white"/>
<path d="M79.5607 20.63L66.3107 5.104H56.7598V48.2895H67.8874V22.2498L78.6208 35.0863H80.622L91.3554 22.2498V48.2895H102.483V5.104H92.9321L79.5607 20.63Z" fill="white"/>
<path d="M151.875 26.6815C151.875 13.4477 142.748 4.95117 128.437 4.95117H109.76V48.1367H127.376C142.87 48.2589 151.875 40.4348 151.875 26.6815ZM140.505 26.6815C140.505 38.815 130.317 39.7624 127.255 39.7624H120.766V13.4782H127.133C135.623 13.4782 140.505 18.3378 140.505 26.712V26.6815Z" fill="white"/>
<path d="M193.474 15.7705V37.6231L207.24 51.6515V1.71155H158.363L172.129 15.74H193.444L193.474 15.7705Z" fill="white"/>
<path d="M158.363 31.816V51.5292H177.829L191.989 37.0729H172.523V17.3597L158.363 31.816Z" fill="white"/>
</svg>
