<svg width="249" height="51" viewBox="0 0 249 51" fill="none" xmlns="http://www.w3.org/2000/svg">
<path d="M75.6845 13.0286H5.83823C6.50166 10.0302 8.14698 7.40324 10.7211 5.14777C13.5341 2.70657 16.6655 1.48596 20.1153 1.48596H77.436L75.658 13.0286H75.6845ZM71.6774 37.5203L69.8198 49.4875H12.5522C9.07578 49.4875 6.3159 48.2669 4.27252 45.7992C2.22915 43.3314 1.4861 40.3595 2.04338 36.8304L4.16637 23.5364H22.1322L19.9296 37.5203H71.6774Z" fill="white"/>
<path d="M101.797 13.0286H83.3269L85.1049 1.48596H103.575L101.823 13.0286H101.797ZM77.7275 49.5141L81.7081 23.563H100.205L96.2506 49.5141H77.7275Z" fill="white"/>
<path d="M75.6842 13.0286H5.83789C6.50132 10.0302 8.14664 7.40324 10.7208 5.14777C13.5337 2.70657 16.6651 1.48596 20.115 1.48596H77.4357L75.6577 13.0286H75.6842Z" fill="white"/>
<path d="M101.797 13.0286H83.3271L85.1052 1.48596H103.575L101.797 13.0286Z" fill="white"/>
<path d="M132.554 1.48596L144.177 13.0286H121.196L109.52 1.48596H132.554Z" fill="white"/>
<path d="M169.786 13.0286H146.142L157.818 1.48596H182.179L169.786 13.0286Z" fill="white"/>
<path d="M183.214 49.514L155.801 23.5364H133.085L101.532 49.514H114.695H125.31H125.628L143.78 34.5218L159.251 49.514H183.214Z" fill="white"/>
<path d="M193.908 1.61865L194.917 2.65351H225.886L224.877 1.61865H193.908Z" fill="white"/>
<path d="M197.014 4.72327L198.022 5.75813H228.991L227.983 4.72327H197.014Z" fill="white"/>
<path d="M200.118 7.82776L201.127 8.86262H232.096L231.087 7.82776H200.118Z" fill="white"/>
<path d="M203.224 10.9324L204.259 11.9672H235.201L234.193 10.9324H203.224Z" fill="white"/>
<path d="M206.328 14.037L207.363 15.0718H238.306L237.297 14.037H206.328Z" fill="white"/>
<path d="M209.433 17.1416L210.468 18.1765H241.41L240.402 17.1416H209.433Z" fill="white"/>
<path d="M212.538 20.2461L213.573 21.281H244.516L243.507 20.2461H212.538Z" fill="white"/>
<path d="M246.612 23.3507H215.643L216.147 23.8814L215.643 24.3856H246.612L247.116 23.8814L246.612 23.3507Z" fill="white"/>
<path d="M213.573 26.4818L212.538 27.4901H243.507L244.516 26.4818H213.573Z" fill="white"/>
<path d="M210.468 29.5864L209.433 30.5948H240.402L241.41 29.5864H210.468Z" fill="white"/>
<path d="M207.363 32.6909L206.328 33.6992H237.297L238.306 32.6909H207.363Z" fill="white"/>
<path d="M204.232 35.7955L203.224 36.8039H234.193L235.201 35.7955H204.232Z" fill="white"/>
<path d="M201.127 38.9001L200.118 39.9085H231.087L232.096 38.9001H201.127Z" fill="white"/>
<path d="M198.022 42.0048L197.014 43.0131H227.983L228.991 42.0048H198.022Z" fill="white"/>
<path d="M194.917 45.1093L193.908 46.1176H224.877L225.886 45.1093H194.917Z" fill="white"/>
<path d="M191.812 48.2139L190.804 49.2222H221.773L222.781 48.2139H191.812Z" fill="white"/>
</svg>
