<svg width="211" height="71" viewBox="0 0 211 71" fill="none" xmlns="http://www.w3.org/2000/svg">
<path d="M146.107 69.4232C146.107 69.4232 146.107 69.3788 146.107 69.3566C146.86 69.3566 147.613 69.3566 148.366 69.3566C148.366 69.3566 148.366 69.401 148.366 69.4232H146.107Z" fill="white"/>
<path d="M41.327 25.273C45.2471 25.273 49.1893 25.273 53.1095 25.273C53.3974 25.273 53.5081 25.3175 53.5746 25.6506C53.9068 27.716 53.9068 29.7813 53.7739 31.8689C53.5967 34.4895 53.043 37.0434 52.135 39.5086C50.6954 43.3284 48.2813 46.3709 45.1363 48.9027C41.8585 51.5233 38.1156 53.1001 33.974 53.7219C28.7914 54.4992 23.7639 54.0772 18.9136 52.0563C13.2881 49.7022 8.9029 45.9046 5.78009 40.6412C4.05258 37.7097 2.92305 34.5339 2.4801 31.1582C1.57205 24.4069 3.07808 18.2108 6.95391 12.6143C10.3646 7.72846 14.927 4.33059 20.5525 2.37626C22.7894 1.59897 25.1149 1.1548 27.4847 1.02155C31.5156 0.777261 35.4136 1.33247 39.1565 2.86484C42.1686 4.10851 44.8041 5.90738 47.1518 8.12821C47.3732 8.32809 47.1961 8.41692 47.0853 8.52796C45.7343 9.90488 44.3612 11.2596 42.988 12.6143C42.7887 12.8142 42.5894 12.9918 42.4343 13.1917C42.2793 13.3916 42.1464 13.3694 41.9692 13.1917C40.7954 12.1035 39.4887 11.1708 38.0713 10.3935C35.8344 9.19421 33.4646 8.50576 30.9619 8.28367C27.6619 7.99496 24.4726 8.41692 21.4606 9.81605C15.5915 12.5255 11.915 17.0782 10.5861 23.3853C9.27941 29.5815 10.6526 35.2446 14.7277 40.1526C17.6733 43.7059 21.5049 45.8379 26.0451 46.5708C29.7438 47.1704 33.376 46.8373 36.8531 45.3938C39.688 44.2167 42.0578 42.4179 43.8739 39.9083C45.1142 38.1761 45.7786 36.2217 46.1994 34.1564C46.288 33.7122 46.3545 33.2458 46.443 32.8017C46.4873 32.6018 46.3988 32.513 46.1994 32.5352C46.1108 32.5352 46.0001 32.5352 45.9115 32.5352C40.4853 32.5352 35.0592 32.5352 29.633 32.5352C29.3008 32.5352 29.1901 32.4685 29.1901 32.1132C29.1901 29.9812 29.1901 27.8492 29.1901 25.695C29.1901 25.3397 29.3008 25.2952 29.6109 25.2952C33.5532 25.2952 37.4954 25.2952 41.4377 25.2952L41.327 25.273Z" fill="white"/>
<path d="M148.367 69.3566C147.614 69.3566 146.861 69.3566 146.108 69.3566C142.542 69.1567 139.397 67.9131 136.673 65.6034C134.746 63.96 133.262 61.9835 132.199 59.6738C132.066 59.4073 132.088 59.2963 132.398 59.1852C134.347 58.3857 136.274 57.5862 138.201 56.7645C138.511 56.6313 138.622 56.6535 138.777 56.9866C139.929 59.4073 141.656 61.3172 144.247 62.1611C147.459 63.2049 150.537 62.8496 153.239 60.6954C154.745 59.4961 155.52 57.8305 155.963 55.9872C156.406 54.1439 156.318 52.2784 156.318 50.4129C156.318 50.3463 156.362 50.2353 156.229 50.2131C156.096 50.1686 156.008 50.2575 155.919 50.3463C155.299 51.057 154.59 51.6788 153.771 52.1896C151.312 53.722 148.633 54.2772 145.776 54.0107C141.59 53.6331 138.112 51.7898 135.278 48.7251C132.952 46.2156 131.468 43.2618 130.937 39.8862C130.139 34.7783 131.313 30.1589 134.525 26.1392C137.138 22.8524 140.527 20.7648 144.69 20.0764C148.256 19.4989 151.578 20.1208 154.546 22.2972C155.033 22.6525 155.476 23.0745 155.875 23.5187C155.963 23.6297 156.052 23.7407 156.207 23.6741C156.362 23.6075 156.296 23.4742 156.296 23.3632C156.296 22.6303 156.296 21.8974 156.296 21.1868C156.296 20.9869 156.34 20.9203 156.561 20.9203C158.776 20.9203 160.969 20.9203 163.184 20.9203C163.361 20.9203 163.449 20.9647 163.427 21.1646C163.427 21.2312 163.427 21.32 163.427 21.3867C163.427 31.4248 163.427 41.4408 163.427 51.4789C163.427 54.1439 163.139 56.7867 162.275 59.3185C160.969 63.1383 158.599 66.0254 154.945 67.802C153.173 68.646 151.312 69.1345 149.363 69.3122C149.031 69.3344 148.721 69.3566 148.389 69.3788L148.367 69.3566ZM138.179 37.1323C138.179 37.3766 138.223 37.732 138.245 38.0873C138.445 40.4858 139.308 42.6178 140.97 44.3723C143.096 46.6153 145.709 47.6591 148.788 47.2593C151.888 46.8596 154.125 45.1273 155.543 42.3957C156.916 39.7751 157.115 36.9991 156.451 34.1342C155.919 31.8246 154.79 29.9146 152.929 28.4267C151.047 26.9387 148.898 26.4279 146.551 26.6944C144.624 26.9165 142.963 27.7382 141.545 29.0485C139.242 31.2027 138.268 33.9344 138.201 37.1323H138.179Z" fill="white"/>
<path d="M56.7646 36.9546C56.7646 27.2718 64.2727 19.832 73.929 19.8764C83.6518 19.9208 91.0713 27.3606 91.0491 37.0212C91.027 46.6597 83.5189 54.1217 73.8847 54.0772C64.2062 54.0328 56.7646 46.593 56.7646 36.9546ZM64.2727 35.9775C64.2727 38.8867 64.6935 40.7078 65.6458 42.4179C68.9458 48.3253 76.9854 49.0804 81.1713 43.7948C84.0505 40.1526 84.2941 36.0663 82.3451 31.9355C79.5324 26.0059 71.7364 24.7623 67.174 29.4482C65.1364 31.5136 64.2948 34.0897 64.2727 35.9775Z" fill="white"/>
<path d="M93.7285 36.9547C93.7285 27.2719 101.192 19.8321 110.871 19.8543C120.571 19.8765 128.013 27.2941 127.991 36.9769C127.991 46.5931 120.483 54.0551 110.849 54.0551C101.192 54.0551 93.7285 46.5931 93.7285 36.9547ZM101.237 36.9769C101.237 37.9985 101.369 38.9757 101.613 39.975C102.698 44.1724 106.131 47.1039 110.406 47.326C113.551 47.5037 116.164 46.26 118.157 43.8171C120.926 40.4414 121.28 35.2447 119.065 31.4026C116.009 26.0948 108.966 24.9844 104.492 29.1152C102.211 31.225 101.281 33.9122 101.237 36.9769Z" fill="white"/>
<path d="M178.311 36.9102C178.311 33.2014 179.219 29.7591 181.345 26.6944C183.87 23.0522 187.325 20.8314 191.688 20.0985C195.143 19.4989 198.443 19.9209 201.543 21.6531C204.511 23.3187 206.615 25.7838 208.165 28.7598C208.786 29.9368 209.206 31.2027 209.738 32.4241C209.849 32.6906 209.694 32.7351 209.516 32.8017C207.612 33.6012 205.707 34.3785 203.78 35.178C198.266 37.4654 192.773 39.7529 187.258 42.0403C187.147 42.0848 186.948 42.0625 187.059 42.3068C188.388 44.7942 190.292 46.593 193.127 47.1038C197.357 47.8811 200.768 46.5042 203.337 43.0397C203.67 42.5955 203.67 42.5955 204.135 42.9065C205.818 44.0391 207.501 45.1495 209.184 46.2599C209.428 46.4376 209.45 46.5264 209.273 46.7707C206.527 50.5239 202.939 53.0335 198.332 53.7663C191.909 54.7879 186.394 52.9668 182.12 47.9255C180.171 45.6381 179.064 42.9287 178.554 39.9528C178.377 38.9534 178.311 37.9318 178.311 36.9102ZM185.752 36.4216C185.885 36.3772 185.996 36.3328 186.106 36.2884C187.878 35.5555 189.65 34.8226 191.444 34.0898C194.523 32.8017 197.601 31.5136 200.68 30.2477C200.968 30.1367 200.99 30.0034 200.857 29.7813C200.613 29.315 200.325 28.8708 199.949 28.5155C198.022 26.6944 195.719 26.1392 193.194 26.6722C188.631 27.6049 185.531 31.7135 185.752 36.4438V36.4216Z" fill="white"/>
<path d="M167.856 27.9603C167.856 19.7432 167.856 11.5261 167.856 3.30904C167.856 2.99813 167.9 2.88708 168.255 2.88708C170.425 2.88708 172.618 2.88708 174.788 2.88708C175.054 2.88708 175.165 2.9315 175.165 3.24242C175.165 19.721 175.165 36.1996 175.165 52.6781C175.165 52.9891 175.054 53.0557 174.766 53.0557C172.618 53.0557 170.447 53.0557 168.299 53.0557C167.9 53.0557 167.834 52.9224 167.834 52.5671C167.834 44.3722 167.834 36.1774 167.834 27.9825L167.856 27.9603Z" fill="white"/>
</svg>
