<svg width="307" height="67" viewBox="0 0 307 67" fill="none" xmlns="http://www.w3.org/2000/svg">
<path d="M86.8417 23.7596C87.5945 23.7596 88.3042 24.3832 88.3042 25.2218V52.7442C88.3042 53.4968 87.616 54.1419 86.8417 54.1419H83.0997C82.4115 54.1419 81.7018 53.5828 81.7018 52.8087V50.2715C79.8092 53.0453 76.5833 54.9589 71.8305 54.9589C63.9162 54.9589 59.0558 49.7125 59.0558 41.9288V25.1573C59.0558 24.4047 59.744 23.7596 60.5182 23.7596H64.2603C65.013 23.7596 65.6582 24.3832 65.6582 25.1573V40.8537C65.6582 45.9066 68.325 49.2609 73.5725 49.2609C78.82 49.2609 81.7448 45.7776 81.7448 40.9182V25.1573C81.7448 24.4047 82.433 23.7596 83.1427 23.7596H86.8848M31.7861 8.51477C19.0114 8.51477 8.68848 18.4487 8.68848 31.7369C8.68848 45.025 19.0114 54.9589 31.7861 54.9589C33.9797 54.9589 36.0873 54.6579 38.0874 54.1203L40.5821 60.5924C40.8401 61.2805 41.3348 61.732 42.281 61.732H46.2597C47.206 61.732 47.9157 61.1085 47.464 59.9044L44.2166 51.4326C50.6254 47.4118 54.8621 40.2731 54.8621 31.7584C54.8621 18.4702 44.5392 8.53627 31.7646 8.53627M41.8294 45.1971L38.9261 37.6284C38.668 37.0048 38.1734 36.4243 37.0336 36.4243H33.227C32.2807 36.4243 31.528 37.0478 31.9581 38.2519L35.7862 48.2073C34.5173 48.5299 33.1625 48.7019 31.7646 48.7019C22.3879 48.7019 15.7425 41.3697 15.7425 31.7369C15.7425 22.104 22.3879 14.7718 31.7646 14.7718C41.1412 14.7718 47.7866 22.104 47.7866 31.7369C47.7866 37.3274 45.55 42.1438 41.8294 45.1971ZM298.225 52.6152C298.548 53.3678 298.161 54.1419 297.215 54.1419H293.043C292.29 54.1419 291.645 53.7548 291.387 53.0023L283.666 32.2529L275.816 53.0023C275.493 53.8193 274.934 54.1419 274.16 54.1419H270.418C269.665 54.1419 269.085 53.8193 268.762 53.0023L260.848 32.1239L253.063 53.0023C252.74 53.7548 252.181 54.1419 251.407 54.1419H247.493C246.74 54.1419 246.159 53.7548 245.837 53.0023L238.116 32.1239L230.137 53.0023C229.814 53.8193 229.255 54.1419 228.481 54.1419H224.739C223.986 54.1419 223.406 53.8193 223.083 53.0023L215.298 32.1239L207.513 53.0023C207.255 53.7548 206.631 54.1419 205.857 54.1419H201.813C200.867 54.1419 200.48 53.3893 200.803 52.6152L211.362 24.9637C211.685 24.1467 212.244 23.7596 213.018 23.7596H217.577C218.33 23.7596 218.911 24.1467 219.233 24.9637L226.696 45.1541L234.223 24.9637C234.546 24.1467 235.105 23.7596 235.879 23.7596H240.374C241.127 23.7596 241.707 24.1467 242.03 24.9637L249.493 45.1541L256.955 24.9637C257.278 24.1467 257.837 23.7596 258.611 23.7596H263.106C263.859 23.7596 264.439 24.1467 264.762 24.9637L272.354 45.1541L279.752 24.9637C280.074 24.1467 280.633 23.7596 281.408 23.7596H285.967C286.72 23.7596 287.3 24.1467 287.623 24.9637L298.182 52.6152M123.037 23.7596H119.294C118.542 23.7596 117.832 24.3832 117.832 25.2218V27.759C115.94 24.9207 112.262 22.8781 107.896 22.8781C99.6594 22.8781 92.5839 29.3931 92.5839 38.897C92.5839 48.4008 99.6809 54.9589 107.832 54.9589C112.262 54.9589 115.875 52.9378 117.832 50.078V52.7442C117.832 53.4968 118.52 54.1419 119.294 54.1419H123.037C123.789 54.1419 124.434 53.5183 124.434 52.7442V25.2218C124.434 24.4047 123.811 23.7596 123.037 23.7596ZM108.606 48.8739C103.165 48.8739 99.2938 44.4445 99.2938 38.94C99.2938 33.4355 103.165 29.0706 108.606 29.0706C114.047 29.0706 117.918 33.371 117.918 38.94C117.918 44.509 114.004 48.8739 108.606 48.8739ZM167.597 49.8415C168.414 50.8521 167.726 51.6046 167.275 51.9272C164.672 53.8838 161.253 54.9589 157.532 54.9589C148.091 54.9589 141.833 48.0568 141.833 38.94C141.833 29.8232 148.091 22.8781 157.532 22.8781C161.274 22.8781 164.694 23.9532 167.275 25.9098C167.726 26.2324 168.35 26.9204 167.597 27.9955L165.834 30.4682C165.146 31.4143 164.307 31.1563 163.619 30.7263C161.963 29.7157 160.006 28.8986 157.726 28.8986C152.22 28.8986 148.543 33.328 148.543 38.9615C148.543 44.595 152.22 48.9599 157.726 48.9599C160.006 48.9599 161.834 48.0783 163.49 47.1322C164.178 46.7452 164.952 46.4442 165.705 47.4548L167.597 49.863V49.8415ZM185.189 22.9426C176.329 22.9426 169.232 29.9092 169.232 38.9615C169.232 48.0138 176.329 54.9804 185.189 54.9804C194.05 54.9804 201.147 48.0783 201.147 38.9615C201.147 29.8447 194.05 22.9426 185.189 22.9426ZM185.189 48.8094C179.748 48.8094 175.877 44.4445 175.877 38.94C175.877 33.4355 179.748 29.0706 185.189 29.0706C190.63 29.0706 194.501 33.371 194.501 38.94C194.501 44.509 190.63 48.8094 185.189 48.8094ZM136.155 9.33184C136.973 9.33184 137.553 10.0199 137.553 10.794V52.6797C137.553 53.4323 136.994 54.1419 136.155 54.1419H132.413C131.661 54.1419 130.951 53.4538 130.951 52.6797V10.794C130.951 10.0414 131.639 9.33184 132.413 9.33184H136.155Z" fill="white"/>
</svg>
